<?xml version="1.0" standalone="no"?>
<!DOCTYPE svg PUBLIC "-//W3C//DTD SVG 20010904//EN"
 "http://www.w3.org/TR/2001/REC-SVG-20010904/DTD/svg10.dtd">
<svg version="1.0" xmlns="http://www.w3.org/2000/svg"
 width="480.000000pt" height="480.000000pt" viewBox="0 0 480.000000 480.000000"
 preserveAspectRatio="xMidYMid meet">
<metadata>
Created by potrace 1.14, written by Peter Selinger 2001-2017
</metadata>
<g transform="translate(0.000000,480.000000) scale(0.100000,-0.100000)"
fill="#000000" stroke="none">
<path d="M1075 4775 c-24 -23 -25 -30 -25 -150 l0 -125 -125 0 c-120 0 -127
-1 -150 -25 -23 -22 -25 -31 -25 -125 0 -94 2 -103 25 -125 23 -24 30 -25 150
-25 l125 0 0 -150 0 -150 -282 0 c-310 0 -328 -3 -371 -61 -40 -55 -38 -97 9
-221 132 -351 284 -758 284 -763 0 -3 -28 -5 -63 -5 -77 0 -124 -23 -155 -76
-21 -36 -23 -49 -20 -159 3 -108 5 -124 26 -150 42 -53 60 -59 171 -64 l103
-3 -6 -157 c-4 -86 -9 -178 -11 -206 -3 -27 -7 -79 -10 -115 -3 -36 -8 -81
-11 -100 -2 -19 -7 -51 -9 -70 -3 -19 -8 -53 -11 -75 -4 -35 -14 -91 -30 -185
-7 -36 -54 -252 -60 -272 -5 -17 28 -18 596 -18 l600 0 -6 28 c-3 15 -14 61
-24 102 -10 41 -25 116 -34 165 -8 50 -18 104 -21 120 -10 55 -34 244 -40 312
-4 38 -8 86 -10 108 -2 22 -7 113 -11 201 l-6 162 104 3 c87 4 108 8 134 26
51 37 64 77 64 198 0 126 -12 161 -71 199 -31 21 -50 26 -104 26 -36 0 -65 2
-65 5 0 3 72 197 160 432 176 470 181 489 134 551 -46 59 -62 62 -374 62
l-280 0 0 150 0 150 125 0 c120 0 127 1 150 25 23 22 25 31 25 125 0 94 -2
103 -25 125 -23 24 -30 25 -150 25 l-125 0 0 125 c0 120 -1 127 -25 150 -22
23 -31 25 -125 25 -94 0 -103 -2 -125 -25z"/>
<path d="M2866 2981 c-15 -17 -17 -49 -14 -342 4 -412 -9 -377 215 -567 l121
-103 -4 -72 c-3 -77 -10 -225 -20 -477 -3 -85 -7 -168 -7 -185 l-2 -30 595 0
c391 0 594 3 593 10 0 6 -4 87 -7 180 -10 260 -17 445 -21 500 -2 28 -1 57 1
66 4 13 112 111 198 179 43 34 87 86 108 129 22 45 23 56 26 371 3 323 3 325
-18 342 -19 15 -44 18 -165 18 -183 0 -175 8 -175 -168 l0 -132 -115 0 -115 0
-1 33 c0 17 0 76 0 129 2 147 22 138 -309 138 -329 0 -309 9 -309 -137 0 -54
0 -113 0 -130 l-1 -33 -115 0 -115 0 0 134 c0 173 8 166 -186 166 -125 0 -143
-2 -158 -19z m967 -908 c61 -44 67 -69 67 -255 l0 -168 -150 0 -150 0 0 162
c0 144 2 166 21 205 38 80 142 107 212 56z"/>
<path d="M385 883 c-69 -36 -85 -75 -85 -200 l0 -83 -117 -59 c-65 -32 -131
-73 -148 -91 l-30 -31 0 -162 c0 -177 5 -194 63 -234 26 -17 80 -18 1132 -18
1055 0 1106 1 1132 18 55 38 66 72 67 220 2 142 -9 194 -47 224 -9 7 -70 40
-134 73 l-118 60 0 89 c0 121 -17 158 -87 195 -29 14 -107 16 -815 16 -696 -1
-786 -3 -813 -17z"/>
<path d="M3083 883 c-64 -36 -78 -66 -81 -180 l-4 -103 -127 -65 c-168 -85
-171 -90 -171 -280 0 -154 10 -189 64 -228 l31 -22 943 -3 c1045 -3 986 -6
1035 62 20 29 22 42 22 187 0 202 0 202 -172 287 l-123 62 0 79 c0 43 -3 93
-6 110 -8 41 -64 97 -105 105 -17 3 -311 6 -653 6 -573 0 -624 -1 -653 -17z"/>
</g>
</svg>
